<svg xmlns="http://www.w3.org/2000/svg" viewBox="0 0 160 160"><path fill="currentColor" fill-rule="evenodd" d="M 32.7 7.4 C 25.6 10, 22.1 15.7, 22 24.6 L 22 29.7 18.2 30.4 C 13.8 31.1, 10.4 34.3, 9 39.1 C 7.6 44, 7.7 62.3, 9.2 63.8 C 10.7 65.3, 15.3 65.3, 16.8 63.8 C 18.5 62.1, 18.4 40.8, 16.8 39.2 C 15.3 37.7, 17.2 36, 20.2 36 C 21.9 36, 22 38.9, 22 83 C 22 134, 22 133.8, 27.4 137.4 C 29.6 138.8, 30 139.8, 30 144 C 30 151.8, 33 154.5, 41.4 154.5 C 49.7 154.5, 52.9 151.9, 53.7 144.6 L 54.3 140 79.6 140 L 105 140 105 143 C 105 151.5, 110 155.6, 119.2 154.8 C 126.1 154.1, 129 150.9, 129 144 C 129 140.1, 129.4 138.9, 131.1 138 C 137 134.8, 137 134.8, 137 83.2 L 137 36 139.9 36 C 143.4 36, 144.1 37.5, 142.3 41 C 140.8 43.9, 140.5 58.6, 142 62.4 C 142.7 64.4, 143.7 65, 145.9 65 C 150 65, 150.7 63.6, 151.3 53.4 C 152.2 38.2, 149.5 31.6, 141.9 30.4 C 138.2 29.8, 138.1 29.6, 137.5 25.1 C 136.3 15.3, 135.8 14, 133.1 11.2 C 128.1 6.2, 125.7 6, 79.4 6 C 46.1 6.1, 35.7 6.4, 32.7 7.4 M 31.9 15.9 C 29.3 18.6, 29 19.5, 29 25.5 C 29 32, 29 32.1, 31.2 30.8 C 34.8 28.8, 121.1 28.4, 126.8 30.3 L 131 31.8 131 26.9 C 131 21, 128.9 15.6, 126.2 14.1 C 124.8 13.4, 109.6 13, 79.5 13 L 34.8 13 31.9 15.9 M 43.4 19.5 C 41.6 24, 41.7 24, 80.2 23.8 C 114.8 23.5, 116.5 23.4, 116.8 21.6 C 117 20.6, 116.6 19.4, 115.8 18.9 C 113.2 17.2, 44 17.8, 43.4 19.5 M 34.5 36 C 29.1 37.7, 29 38.4, 29 63.4 C 29 87.4, 29.1 88, 32.7 89.8 C 36.4 91.8, 124.9 91.4, 127.8 89.4 C 131.2 87.1, 131.3 40.5, 127.9 37.4 C 125.9 35.6, 123.5 35.5, 81.6 35.3 C 57.2 35.2, 36.2 35.5, 34.5 36 M 55.9 57.7 C 41.2 72.3, 37.9 77, 42.8 77 C 45 77, 74 48.1, 74 45.8 C 74 40.9, 70.4 43.2, 55.9 57.7 M 65.1 68.4 C 56.1 77.4, 54.2 81, 58.2 81 C 60.6 81, 78.3 62.3, 77.7 60.6 C 76.6 57.7, 74.5 58.9, 65.1 68.4 M 29 112.3 C 29 126.9, 29.3 130.1, 30.6 131.4 C 32.8 133.7, 125.5 133.8, 128.6 131.6 C 130.3 130.3, 130.5 128.6, 130.8 112.7 L 131.1 95.2 126.9 96.6 C 121 98.7, 33.2 98.2, 30.7 96.1 C 29.1 94.9, 29 96.1, 29 112.3 M 37.4 107.9 C 31.3 111.6, 31.2 120.2, 37.1 124.4 C 44.5 129.6, 55.4 121.1, 52 112.9 C 49.4 106.8, 42.9 104.6, 37.4 107.9 M 112.1 107.3 C 106.3 110.7, 105.3 118.6, 110.1 123.1 C 119.3 131.6, 132.6 119.3, 124.2 110 C 121 106.4, 115.7 105.3, 112.1 107.3 M 61.2 110.2 C 61.5 112.5, 61.5 112.5, 80 112.5 C 97.8 112.5, 98.5 112.4, 98.5 110.5 C 98.5 108.6, 97.7 108.5, 79.7 108.2 L 60.9 108 61.2 110.2 M 39.2 113.2 C 36.5 115.9, 38.6 120, 42.6 120 C 45.9 120, 47.5 117.5, 46.2 114.5 C 44.9 111.8, 41.3 111.1, 39.2 113.2 M 114.1 113.4 C 113.4 114.2, 113 115.9, 113.2 117.2 C 113.6 120.1, 118.7 120.5, 120.4 117.8 C 122.7 114.1, 116.8 110.1, 114.1 113.4 M 60.7 121.3 C 59.4 124.7, 61.4 125.1, 80.1 124.8 C 97.7 124.5, 98.5 124.4, 98.5 122.5 C 98.5 120.6, 97.7 120.5, 79.9 120.2 C 64.9 120, 61.1 120.2, 60.7 121.3 M 36.2 143.8 L 36.5 147.5 41.5 147.5 L 46.5 147.5 46.8 143.8 L 47.1 140 41.5 140 L 35.9 140 36.2 143.8 M 112.2 143.8 C 112.5 147.5, 112.6 147.5, 117.2 147.8 C 121.1 148.1, 121.9 147.8, 122.5 146.1 C 123.9 141.7, 122.3 140, 116.9 140 L 111.9 140 112.2 143.8"/></svg>
