<svg xmlns="http://www.w3.org/2000/svg" viewBox="0 0 160 160"><path fill="currentColor" fill-rule="evenodd" d="M 66 39.6 C 66 40.1, 66.7 41.4, 67.5 42.4 C 71.4 47.5, 68.2 52.9, 58.6 57.5 C 54.7 59.4, 47.2 63.6, 42 67 L 32.5 73.1 26.7 66.6 C 21 60.2, 10.1 52, 7.4 52 C 4.3 52, 4.2 56.3, 7.1 64.3 C 10.8 74.3, 10.9 80.8, 7.4 92.2 C 5.9 96.9, 5 101.6, 5.3 102.4 C 6.9 106.5, 14.1 102.6, 24.7 92.1 L 30.9 85.9 37.9 90.6 C 45.8 95.8, 45.8 95.7, 43 99.3 C 41.9 100.7, 41 102.1, 41 102.4 C 41 103.6, 47.5 103, 50.2 101.6 C 52.6 100.3, 53.5 100.3, 57 101.7 C 61.7 103.6, 61.8 103.9, 58.5 107 C 53.8 111.4, 56.7 112.5, 63.5 108.9 C 71.2 105, 80.6 109.1, 82.9 117.5 C 83.6 120.2, 84.1 120.5, 87.3 120.3 C 91.5 120, 102.9 115.1, 107.7 111.4 C 109.5 110, 114.1 107.8, 117.8 106.5 C 142.6 97.9, 159 87.3, 154.9 82.4 C 154.3 81.6, 152.6 81, 151.1 81 L 148.5 81 151.4 79.1 C 156.6 75.6, 156.5 74.6, 150.4 69.1 C 140.4 60.2, 126.9 54.3, 110.6 51.4 C 104.8 50.4, 100.8 49.2, 99.5 48 C 94.6 43.4, 83.9 39.6, 74.8 39.2 C 69.9 38.9, 66 39.1, 66 39.6 M 73.5 45.3 C 73.9 46.5, 73.6 48.8, 73.1 50.3 C 72 53.2, 71.9 53.2, 79 51.4 C 79.8 51.2, 83.4 50.8, 87 50.4 C 90.6 50.1, 93.7 49.6, 93.8 49.5 C 95.1 48.3, 80.3 43, 75.7 43 C 73.3 43, 73 43.3, 73.5 45.3 M 84.9 55 C 71.4 56.6, 57.1 62.1, 45.5 70 C 43.3 71.5, 38.7 74.3, 35.3 76.2 L 29.1 79.6 41.1 87.4 C 69 105.7, 90.5 110, 115.6 102.4 L 120.8 100.8 117 97.4 C 111.8 92.7, 110.6 89.4, 111.2 80.6 C 111.7 73, 114.7 65.8, 118.2 63.6 C 121.1 61.9, 121.1 63.4, 118.5 69.3 C 112 83.5, 116 97, 126.8 97 C 130.8 97, 140.4 92.8, 145.9 88.6 L 149.4 86 145.3 86 C 138.6 86, 138.1 83.9, 143.7 79.4 C 146.3 77.3, 148.9 75.3, 149.3 75 C 151.8 72.9, 131.2 61.1, 119.8 58.1 C 113.6 56.4, 94.8 53.7, 92.3 54.1 C 91.9 54.2, 88.5 54.6, 84.9 55 M 10.8 61.8 C 15.5 71, 15.9 81.2, 12 92.6 C 9.5 99.7, 10.5 99.4, 19.7 90.6 L 27.4 83.3 24.2 81.6 C 20.1 79.5, 20.2 78.2, 24.6 76.4 L 28.1 74.9 25.1 71.2 C 20.3 65.1, 12 58, 9.8 58 C 9.3 58, 9.8 59.7, 10.8 61.8 M 81 74 C 77.5 80.8, 79.3 96, 83.6 96 C 85.8 96, 85.9 94.6, 84.3 89.5 C 82.7 84.7, 82.9 81.3, 85.6 72.2 C 86.7 68.3, 83.2 69.6, 81 74 M 97.5 72.3 C 95.4 75.5, 94 80.7, 94 85 C 94.1 91.5, 98.7 99, 101.2 96.5 C 101.5 96.2, 100.8 93.5, 99.8 90.4 C 98 85.2, 98 84.5, 99.5 79.2 C 100.4 76.1, 101.2 72.9, 101.3 72.1 C 101.7 69.7, 99.2 69.8, 97.5 72.3 M 132.2 70.7 C 130.6 71.3, 130.7 75.5, 132.4 76.9 C 135.4 79.4, 139.5 74.5, 137 71.5 C 135.7 70, 134.5 69.8, 132.2 70.7 M 66.6 72.9 C 61.6 78.4, 63.2 95, 68.8 95 C 69.9 95, 70 94.3, 69.5 92.2 C 68.1 86.6, 67.8 80, 69 76.5 C 70.5 72, 69.2 70.1, 66.6 72.9 M 85 110.6 C 85 111.7, 87.5 116, 88.1 116 C 89.5 116, 99.4 111.9, 100.4 111 C 101 110.4, 98.1 110.1, 93.2 110.2 C 88.7 110.2, 85 110.4, 85 110.6"/></svg>
