<svg xmlns="http://www.w3.org/2000/svg" viewBox="0 0 160 160"><path fill="currentColor" fill-rule="evenodd" d="M 75.4 19.9 C 65.7 22.3, 56 29.9, 41.7 46.5 C 28.8 61.5, 28.9 61.5, 22.1 61.6 C 15.1 61.6, 12.6 63, 9.9 68.1 C 7.5 72.9, 8 76.6, 11.5 80.8 C 12.8 82.3, 14.3 85.4, 14.9 87.6 C 17.4 97, 28.7 99.8, 35.8 92.8 L 38.9 89.9 47.2 91.1 C 51.8 91.8, 55.6 92.4, 55.8 92.5 C 55.9 92.6, 55.1 95.2, 54 98.3 C 52.1 103.5, 51.7 103.8, 47.4 104.9 C 35.7 107.9, 31.3 117.5, 38.5 124.7 C 40.4 126.6, 42 128.8, 42 129.5 C 42 131.3, 47.5 135.8, 50.6 136.6 C 54.5 137.6, 58 136.2, 62.3 131.9 C 67.2 127.1, 66.6 127.1, 69 132.3 C 73.4 141.7, 83.7 144.6, 94.6 139.4 C 104.3 134.8, 138.7 98.6, 148.2 82.8 C 156.2 69.7, 151 59.8, 135 57.5 C 130.7 56.9, 111.6 59.1, 107.6 60.6 C 106 61.2, 105.8 61, 106.4 59.4 C 108.1 55, 108.2 45.4, 106.6 40 C 102.1 24.5, 89.6 16.5, 75.4 19.9 M 70.1 28.8 C 63.1 32.4, 54.1 40.7, 47 50 C 43.8 54.1, 38.7 59.9, 35.7 62.8 C 30 68.1, 30 68.1, 25 67.4 C 15.6 66.2, 11 74.8, 18.8 78.9 C 20.5 79.8, 21 80.9, 21 83.9 C 21 91.7, 26.8 93.2, 32.9 86.8 L 36.9 82.7 43.9 84.3 C 56.5 87.4, 57.9 87, 66.8 78.8 C 74.9 71.3, 83.6 66.5, 93.7 63.9 C 98.8 62.7, 98.9 62.6, 100.1 57.7 C 103 45.4, 98.9 32.1, 90.8 27.9 C 85.1 25, 76.8 25.4, 70.1 28.8 M 113.5 65.5 C 110.2 66.3, 105 67.5, 102 68.1 C 99 68.8, 95.2 69.9, 93.5 70.5 C 91.8 71.2, 88.5 72.5, 86 73.5 C 79.5 75.9, 72.7 80.8, 68.1 86.4 C 63.2 92.4, 57.7 103.5, 57.8 107.2 C 57.9 109.8, 57.6 110, 54.1 110 C 44.3 110, 38.1 117.2, 44.2 121.4 C 45.4 122.3, 46.9 124.4, 47.4 126.2 C 48.4 129.2, 48.9 129.5, 52.7 129.8 C 56.6 130.1, 57.1 129.9, 59.6 126.1 C 62 122.5, 62.7 122, 66.1 122 C 68.3 122, 70 121.6, 70 121.1 C 70 119.5, 75.8 114, 77.4 114 C 79.8 114, 79.4 116.7, 76.4 120.5 C 72.7 125.4, 73.3 130.6, 77.9 133.7 C 87.3 140.1, 96.9 133.6, 125.7 101.5 C 146.2 78.6, 149.7 70.8, 141.7 66 C 137.8 63.6, 123 63.4, 113.5 65.5 M 31.7 73.6 C 30.3 75.1, 31.1 77, 33.1 77 C 34.5 77, 35 76.5, 34.8 75.3 C 34.5 73.5, 32.8 72.6, 31.7 73.6 M 123.4 76.3 C 120.8 78.6, 120.7 81, 123.3 81 C 125.4 81, 130.4 76.4, 129.6 75.2 C 128.5 73.4, 126.4 73.8, 123.4 76.3"/></svg>
